
<svg width="249" height="39" viewBox="0 0 249 39" fill="none" xmlns="http://www.w3.org/2000/svg">
<path d="M68.5718 18.2545H62.8446L71.6828 1.18544H78.0235L86.4568 18.2545H80.0947L78.8098 15.1775H69.949L68.5718 18.2545ZM77.271 11.4618L74.541 5.25124L71.6488 11.4618H77.271ZM87.7454 1.18506H93.242V18.2535H87.7454L87.7454 1.18506ZM96.0462 1.18506H101.543V4.66749H96.0462V1.18506ZM96.0462 6.35151H101.543V18.2347H96.0462V6.35151Z" fill="#FF6600"/>
<path d="M104.543 1.18585H110.038V8.06211C110.693 7.38888 111.424 6.88411 112.234 6.54718C113.043 6.21214 113.929 6.04243 114.891 6.04243C116.764 6.04243 118.269 6.64085 119.405 7.8377C120.541 9.03393 121.109 10.6199 121.109 12.5962C121.109 14.3946 120.549 15.8348 119.427 16.9197C118.307 18.0034 116.819 18.5453 114.961 18.5453C113.938 18.5453 113.009 18.3592 112.175 17.9852C111.344 17.6112 110.632 17.0605 110.038 16.3364C110.038 16.7299 110.024 17.0876 109.992 17.4119C109.962 17.7363 109.911 18.016 109.841 18.2549H104.346C104.408 18.0324 104.455 17.752 104.49 17.4182C104.525 17.0825 104.543 16.6997 104.543 16.2672V1.18585ZM115.554 12.3573C115.554 11.3076 115.307 10.481 114.813 9.875C114.321 9.2684 113.65 8.96603 112.803 8.96603C111.893 8.96603 111.197 9.25772 110.716 9.84043C110.235 10.4231 109.992 11.268 109.992 12.38C109.992 13.4297 110.236 14.245 110.721 14.8277C111.207 15.4086 111.884 15.6996 112.756 15.6996C113.612 15.6996 114.292 15.3998 114.797 14.7982C115.302 14.196 115.554 13.3826 115.554 12.3573ZM133.646 16.3481C133.124 17.0358 132.443 17.5444 131.611 17.8756C130.777 18.2069 129.769 18.3735 128.582 18.3735C126.89 18.3735 125.592 18.0724 124.683 17.4714C123.772 16.8699 123.318 16.0181 123.318 14.9156C123.318 13.412 124.102 12.3264 125.67 11.6582C127.24 10.9925 129.867 10.643 133.555 10.6122C133.555 10.5895 133.558 10.5449 133.566 10.4795C133.574 10.4142 133.578 10.3664 133.578 10.3356C133.578 9.72772 133.394 9.27324 133.029 8.97277C132.662 8.67355 132.114 8.52269 131.38 8.52269C130.719 8.52269 130.209 8.6327 129.855 8.85208C129.501 9.07084 129.29 9.40084 129.22 9.83897H124.148C124.172 8.52017 124.796 7.5383 126.023 6.89524C127.25 6.25093 129.12 5.92907 131.635 5.92907C134.05 5.92907 135.849 6.30435 137.029 7.05615C138.207 7.8067 138.799 8.95202 138.799 10.4864V16.5462C138.799 16.9214 138.817 17.2257 138.852 17.4564C138.886 17.6877 138.945 17.9014 139.03 18.1019H133.938C133.836 17.8184 133.764 17.5318 133.717 17.2445C133.671 16.956 133.646 16.6568 133.646 16.3481ZM133.531 12.9537C131.753 12.9537 130.542 13.07 129.897 13.3007C129.252 13.532 128.929 13.9362 128.929 14.5139C128.929 14.9061 129.086 15.2123 129.398 15.431C129.712 15.6504 130.154 15.7604 130.727 15.7604C131.662 15.7604 132.363 15.5423 132.829 15.1079C133.298 14.6729 133.531 14.0167 133.531 13.1398V12.9537ZM141.3 1.18585H146.797V8.06211C147.45 7.38888 148.183 6.88411 148.992 6.54718C149.801 6.21214 150.688 6.04243 151.65 6.04243C153.521 6.04243 155.026 6.64085 156.163 7.8377C157.298 9.03393 157.867 10.6199 157.867 12.5962C157.867 14.3946 157.306 15.8348 156.185 16.9197C155.064 18.0034 153.577 18.5453 151.718 18.5453C150.694 18.5453 149.766 18.3592 148.934 17.9852C148.103 17.6112 147.39 17.0605 146.797 16.3364C146.797 16.7299 146.781 17.0876 146.75 17.4119C146.72 17.7363 146.669 18.016 146.599 18.2549H141.104C141.164 18.0324 141.214 17.752 141.248 17.4182C141.284 17.0825 141.3 16.6997 141.3 16.2672V1.18585ZM152.312 12.3573C152.312 11.3076 152.065 10.481 151.572 9.875C151.078 9.2684 150.408 8.96603 149.56 8.96603C148.651 8.96603 147.955 9.25772 147.473 9.84043C146.992 10.4231 146.75 11.268 146.75 12.38C146.75 13.4297 146.993 14.245 147.478 14.8277C147.966 15.4086 148.643 15.6996 149.515 15.6996C150.37 15.6996 151.048 15.3998 151.554 14.7982C152.06 14.196 152.312 13.3826 152.312 12.3573ZM170.405 16.3481C169.88 17.0358 169.203 17.5444 168.37 17.8756C167.536 18.2069 166.527 18.3735 165.339 18.3735C163.651 18.3735 162.348 18.0724 161.44 17.4714C160.531 16.8699 160.076 16.0181 160.076 14.9156C160.076 13.412 160.86 12.3264 162.428 11.6582C163.999 10.9925 166.627 10.643 170.313 10.6122C170.313 10.5895 170.318 10.5449 170.326 10.4795C170.332 10.4142 170.335 10.3664 170.335 10.3356C170.335 9.72772 170.152 9.27324 169.787 8.97277C169.422 8.67355 168.871 8.52269 168.14 8.52269C167.477 8.52269 166.968 8.6327 166.614 8.85208C166.26 9.07084 166.049 9.40084 165.979 9.83897H160.908C160.931 8.52017 161.554 7.5383 162.781 6.89524C164.008 6.25093 165.88 5.92907 168.394 5.92907C170.809 5.92907 172.606 6.30435 173.788 7.05615C174.969 7.8067 175.558 8.95202 175.558 10.4864V16.5462C175.558 16.9214 175.575 17.2257 175.61 17.4564C175.645 17.6877 175.706 17.9014 175.789 18.1019H170.696C170.595 17.8184 170.521 17.5318 170.474 17.2445C170.43 16.956 170.405 16.6568 170.405 16.3481ZM170.289 12.9537C168.512 12.9537 167.301 13.07 166.654 13.3007C166.01 13.532 165.687 13.9362 165.687 14.5139C165.687 14.9061 165.845 15.2123 166.157 15.431C166.472 15.6504 166.912 15.7604 167.485 15.7604C168.419 15.7604 169.121 15.5423 169.59 15.1079C170.056 14.6729 170.289 14.0167 170.289 13.1398V12.9537ZM192.288 11.7904V9.79775H199.468V16.0762C198.364 16.9531 197.229 17.6131 196.057 18.0563C194.887 18.4976 193.683 18.7188 192.449 18.7188C190.785 18.7188 189.272 18.3631 187.912 17.649C186.552 16.9361 185.526 15.9052 184.831 14.5563C184.136 13.2048 183.791 11.6993 183.791 10.0335C183.791 8.38465 184.135 6.84394 184.827 5.41262C185.514 3.98192 186.507 2.92021 187.803 2.22624C189.097 1.53226 190.589 1.1859 192.275 1.1859C193.501 1.1859 194.61 1.38454 195.598 1.78182C196.589 2.18035 197.367 2.73353 197.93 3.44448C198.493 4.1548 198.919 5.08009 199.211 6.22289L197.181 6.77669C196.926 5.91362 196.611 5.23284 196.234 4.73813C195.857 4.24154 195.32 3.8449 194.617 3.54757C193.916 3.24899 193.143 3.10125 192.288 3.10125C191.263 3.10125 190.38 3.25714 189.633 3.57019C188.886 3.88386 188.285 4.29623 187.828 4.80665C187.369 5.31582 187.014 5.87653 186.759 6.48691C186.328 7.53793 186.114 8.67945 186.114 9.90711C186.114 11.4239 186.372 12.6906 186.893 13.7114C187.412 14.7316 188.166 15.4891 189.162 15.9838C190.15 16.4785 191.207 16.7262 192.32 16.7262C193.29 16.7262 194.236 16.5389 195.161 16.1623C196.082 15.7877 196.784 15.386 197.262 14.9604V11.7904H192.288ZM202.763 18.4876V6.1985H204.641V8.06418C205.122 7.1942 205.564 6.62154 205.972 6.3437C206.377 6.06712 206.825 5.92882 207.313 5.92882C208.017 5.92882 208.732 6.14948 209.46 6.59201L208.732 8.52244C208.223 8.22511 207.714 8.07677 207.205 8.07677C206.75 8.07677 206.342 8.21255 205.977 8.48599C205.616 8.76069 205.358 9.14162 205.202 9.62627C204.97 10.3674 204.853 11.1764 204.853 12.0558V18.4876H202.763ZM209.877 12.3441C209.877 10.0704 210.511 8.3864 211.777 7.29138C212.832 6.38242 214.121 5.92857 215.641 5.92857C217.332 5.92857 218.713 6.48048 219.786 7.58619C220.856 8.6919 221.393 10.2207 221.393 12.1706C221.393 13.7509 221.155 14.9936 220.682 15.8982C220.207 16.804 219.517 17.5068 218.61 18.0084C217.704 18.5075 216.713 18.7596 215.641 18.7596C213.92 18.7596 212.53 18.2077 211.469 17.1057C210.406 16.0038 209.877 14.4172 209.877 12.3441ZM212.026 12.3472C212.026 13.9212 212.369 15.098 213.053 15.8812C213.739 16.6651 214.601 17.0567 215.641 17.0567C216.673 17.0567 217.532 16.6619 218.215 15.8762C218.901 15.0898 219.243 13.8892 219.243 12.2787C219.243 10.7588 218.901 9.60777 218.21 8.82454C217.522 8.04256 216.665 7.64906 215.641 7.64906C214.601 7.64906 213.739 8.04004 213.053 8.81888C212.369 9.59771 212.026 10.7738 212.026 12.3472ZM232.197 18.2177V16.3998C231.24 17.7915 229.943 18.4893 228.302 18.4893C227.575 18.4893 226.901 18.3504 226.273 18.0719C225.645 17.7953 225.178 17.4464 224.875 17.0253C224.57 16.6047 224.357 16.0905 224.233 15.4821C224.148 15.0741 224.106 14.426 224.106 13.539V5.92857H226.197V12.7363C226.197 13.8232 226.239 14.5549 226.324 14.932C226.454 15.4795 226.732 15.9089 227.155 16.2213C227.578 16.5324 228.103 16.6902 228.725 16.6902C229.35 16.6902 229.934 16.5293 230.483 16.2081C231.029 15.8906 231.415 15.4544 231.642 14.9038C231.868 14.3531 231.984 13.5541 231.984 12.5031V5.92857H234.072V18.2177H232.197ZM238.335 23.1909V6.19856H240.23V7.79646C240.677 7.17289 241.184 6.70585 241.747 6.39469C242.31 6.0829 242.993 5.9289 243.793 5.9289C244.841 5.9289 245.768 6.19605 246.57 6.73602C247.372 7.27599 247.977 8.03722 248.385 9.01973C248.794 10.0022 249 11.0797 249 12.2501C249 13.5061 248.773 14.6375 248.322 15.6433C247.872 16.6491 247.215 17.4204 246.359 17.9553C245.499 18.4909 244.595 18.7593 243.651 18.7593C242.956 18.7593 242.334 18.6134 241.782 18.3224C241.232 18.0307 240.778 17.6617 240.426 17.2167V23.1909H238.335ZM240.212 12.4142C240.212 13.9964 240.531 15.1649 241.171 15.9211C241.81 16.6786 242.581 17.0564 243.491 17.0564C244.413 17.0564 245.204 16.6648 245.863 15.8803C246.523 15.0983 246.849 13.8851 246.849 12.2407C246.849 10.6748 246.53 9.50187 245.885 8.7224C245.244 7.9442 244.476 7.55256 243.583 7.55256C242.697 7.55256 241.914 7.9687 241.234 8.7972C240.553 9.62758 240.212 10.8326 240.212 12.4142Z" fill="#FF6600"/>
<path d="M8.18847 33.2102C7.8836 33.175 7.40712 32.9041 7.06893 32.6325C3.85049 29.4801 7.98292 25.8549 12.7634 23.7542V17.7567C13.8811 18.4689 14.4921 18.5016 14.5248 18.6034L18.1845 14.9783L16.9644 11.8591C27.6739 8.16547 31.9766 6.74171 40.6865 5.28587L39.1251 3.82687L41.669 2.37166C47.5307 4.30461 53.0568 4.81126 52.1057 9.72504C52.3439 6.40413 48.209 5.1155 41.906 3.35416L40.6865 4.09843L43.0237 6.03076C32.5876 7.82667 26.1822 9.86082 18.5573 12.5035L19.607 15.2152L15.7788 18.9762C16.4238 19.1459 23.0989 21.3818 30.0443 16.5366C30.0443 16.5366 30.1813 16.4341 30.1813 16.4008C29.9796 16.062 29.5031 15.6879 28.9279 15.1813C30.9614 15.3171 32.2809 17.1124 32.0445 18.9762H31.096C31.1632 18.3658 31.0274 17.7221 30.8257 17.2821C25.4373 21.2134 19.2016 21.7898 13.8811 19.9253V24.5676C11.3057 25.4828 6.69554 28.3272 6.73074 31.0748C6.89984 32.3955 7.5781 32.8695 8.18847 33.2102Z" fill="black"/>
<path d="M30.1974 31.6535C24.4325 34.5677 18.9115 36.9061 10.4053 37.2449C-0.675718 37.0066 -2.40374 29.652 2.84822 21.9611C7.79594 14.201 15.6585 7.18455 28.1632 2.81263C31.7878 1.52839 37.1089 0.0694008 42.2596 0.00151062C49.6476 -0.0670052 56.8331 2.23807 56.3573 9.32115C56.0857 14.7435 48.2596 22.4011 44.1234 27.8919C42.3608 30.2963 42.0553 31.8565 45.0707 31.7214C56.0191 31.0079 65.9472 27.2143 75.1644 23.2824C68.9306 27.5185 36.7009 43.4787 36.5676 32.6027C36.6003 31.2116 37.2434 29.7551 38.2938 28.1968C39.3121 26.6372 40.7346 25.0104 42.1917 23.3503C44.3944 20.8428 49.85 14.8447 51.6799 11.2516C54.7631 4.4407 47.851 4.10125 41.8862 2.00109L39.3429 3.45631L40.9044 4.91528C32.1945 6.37175 27.8917 7.79491 17.1822 11.4892L18.4023 14.6077L14.7426 18.2328C14.6414 18.1316 14.0989 18.0989 12.9806 17.3861V23.3836C8.20076 25.485 4.06771 29.1102 7.28615 32.262C7.62496 32.5335 8.10144 32.8044 8.40631 32.8396C14.268 36.1605 30.2282 31.6535 30.1974 31.6535ZM64.6695 35.555H65.4282C65.5898 35.555 65.7124 35.5374 65.8029 35.5097C65.8984 35.4751 65.9663 35.4167 66.0116 35.3488C66.0568 35.2714 66.0839 35.1973 66.0839 35.1112C66.0839 34.9848 66.0355 34.8798 65.9462 34.7994C65.8544 34.7202 65.7124 34.6799 65.5162 34.6799H64.6695V35.555ZM64.3131 37.0649V34.3795H65.5005C65.7369 34.3795 65.9211 34.404 66.0418 34.4474C66.1668 34.5002 66.2624 34.5806 66.3359 34.7082C66.4139 34.8283 66.4491 34.9622 66.4491 35.1112C66.4491 35.301 66.3862 35.4638 66.2674 35.5945C66.1423 35.7209 65.955 35.8039 65.6979 35.8435C65.7928 35.8862 65.8632 35.9296 65.9123 35.9761C66.0116 36.0748 66.1134 36.1898 66.202 36.3332L66.6691 37.0649H66.2241L65.8745 36.5117C65.7702 36.3438 65.6797 36.225 65.6175 36.1358C65.5489 36.0516 65.4905 35.9912 65.4358 35.956C65.3811 35.9233 65.3321 35.8957 65.2767 35.8824C65.2353 35.8787 65.1718 35.8724 65.0787 35.8724H64.6695V37.0649H64.3131Z" fill="#FF6600"/>
<path d="M65.395 38.3075C66.8049 38.3075 67.9496 37.1603 67.9496 35.7566C67.9496 34.346 66.8049 33.2007 65.395 33.2007C63.9888 33.2007 62.8447 34.346 62.8447 35.7566C62.8447 37.1603 63.9888 38.3075 65.395 38.3075ZM63.2401 35.7566C63.2401 34.5666 64.205 33.6011 65.395 33.6011C66.5837 33.6011 67.5504 34.5666 67.5504 35.7566C67.5504 36.9402 66.5837 37.9077 65.395 37.9077C64.205 37.9077 63.2401 36.9402 63.2401 35.7566ZM87.7453 23.715V38.1822C88.7505 38.1822 89.8731 37.2714 89.8731 36.2656V35.5075H91.0782C91.8847 35.4654 92.8131 34.3352 92.8131 33.7707V30.5516C92.8131 29.9463 92.1292 29.5082 91.8055 29.2662C92.1292 28.9827 92.8131 28.5011 92.8131 27.8952V23.715H87.7453ZM90.723 28.5011C90.723 28.7413 90.5231 29.1461 90.2798 29.3868C90.2421 29.4296 90.1202 29.549 90.1202 29.549C90.1013 29.5654 90.08 29.5886 90.0385 29.5886H90.723V33.7707H89.8782V25.4839H90.723V28.5011ZM98.7666 33.0855V26.6084H93.6586V35.4616H96.1925C96.596 35.4214 97.0807 35.2586 97.4786 34.9783C97.7237 34.8167 97.9249 34.6577 98.1254 34.4546C98.4875 34.0523 98.7666 33.5708 98.7666 33.0855ZM95.6714 28.3H96.7563V33.8097H95.6714V28.3ZM93.1343 23.715V25.4839H99.2607V38.1822C99.9452 38.1822 101.425 37.5216 101.425 36.1462V25.4839C101.866 25.4839 102.23 24.1965 102.23 23.715H93.1343ZM111.46 36.5144V35.1623H115.756C116.377 35.1623 116.938 34.1025 117.269 33.5292H111.46V32.3839H114.69C115.608 32.3839 117.102 31.1135 117.144 30.4597V23.7148H103.322V32.3839H108.882V33.5292H103.322V35.1623H108.882V36.5144H103.16V38.1897H116.122C116.655 38.1897 117.144 37.1292 117.554 36.5144H111.46ZM111.46 28.8669H112.564C112.727 28.8669 112.892 28.8248 113.053 28.7009C113.258 28.579 114.24 27.3519 114.363 27.2268H111.46V25.3479H114.609V30.7483H111.46V28.8669ZM105.816 28.8669H108.881V30.7476H105.816V28.8669ZM105.816 25.3479H108.881V27.2268H105.816V25.3479ZM121.184 36.314V32.2375H130.02C130.818 32.2375 132.253 30.9156 132.291 30.2537V23.715H118.574V36.1682C118.574 37.1633 119.173 38.1961 120.292 38.1961H130.763C131.553 38.1961 132.501 36.9364 132.665 36.314H121.184ZM126.791 25.575H129.706V30.3756H126.791V25.575ZM121.203 25.575H124.266V30.3756H121.203V25.575ZM137.777 36.314V32.2375H146.615C147.416 32.2375 148.849 30.9156 148.892 30.2537V23.715H135.175V36.1682C135.175 37.1633 135.774 38.1961 136.892 38.1961H147.359C148.149 38.1961 149.098 36.9364 149.265 36.314H137.777ZM143.389 25.575H146.305V30.3756H143.389V25.575ZM137.802 25.575H140.861V30.3756H137.802V25.575ZM158.012 33.6545V33.2006H159.04V33.591H165.27C165.27 33.591 165.118 34.4302 163.758 34.4302H159.106V36.6812C159.106 38.3885 158.012 38.5928 158.012 38.5928V34.4943H150.59V33.6545H158.012Z" fill="#FF6600"/>
<path d="M152.962 35.5724H154.071C154.071 35.5724 152.917 37.0597 152.568 37.4507C152.221 37.8366 151.759 38.4558 151.089 38.4558C150.713 38.4558 150.59 38.4646 150.59 38.4646L152.962 35.5724ZM163.557 35.5724H162.448C162.448 35.5724 163.604 37.0597 163.949 37.4507C164.297 37.8366 164.76 38.4558 165.43 38.4558C165.803 38.4558 165.928 38.4646 165.928 38.4646L163.557 35.5724ZM163.693 25.1401C165.019 25.1401 165.271 24.2984 165.271 24.2984H159.056L159.508 23.7151H158.487L157.966 24.3638H153.787L154.302 23.7151H153.237L150.59 27.1573H151.722V31.863C151.722 31.863 151.838 31.8781 151.99 31.863C153.634 31.863 153.772 31.6474 153.772 31.6474H163.693C165.012 31.6474 165.14 30.8598 165.14 30.8598H158.968V29.4838H163.693C164.993 29.4838 165.205 28.6496 165.205 28.6496H158.968V27.2937H163.693C164.993 27.2937 165.205 26.4438 165.205 26.4438H158.968V25.1401H163.693ZM152.682 29.5473H157.945V30.8585H152.682V29.5473ZM152.682 27.4238H157.945V28.7156H152.682V27.4238ZM157.947 26.5067H152.682L152.677 26.039L152.946 25.6575L153.299 25.2049H157.947V26.5067ZM168.376 23.7149V38.3305H180.673C181.599 38.3305 181.951 37.4524 181.905 36.5434V23.7149H168.376ZM180.91 36.4372C180.91 36.9664 180.794 37.3807 180.099 37.3807H169.294V24.5635H180.91V36.4372Z" fill="#FF6600"/>
<path d="M173.856 29.6436L170.748 35.2488C170.748 35.2488 171.791 35.4449 172.266 34.4568L174.909 29.6568L173.856 29.6436Z" fill="#FF6600"/>
<path d="M177.74 34.2043C177.74 34.5086 177.632 34.6594 177.414 34.6594H176.376V35.4829H177.696C178.51 35.4829 178.778 35.1862 178.735 34.2773C178.735 34.2773 178.727 28.8153 178.735 28.8153C179.759 28.8153 179.823 27.9586 179.823 27.9586L178.735 27.9692V26.0866H177.74V27.9692H170.748V28.8782H177.74V34.2043Z" fill="#FF6600"/>
</svg>
