
<svg width="184" height="60" viewBox="0 0 184 60" fill="none" xmlns="http://www.w3.org/2000/svg">
<g clip-path="url(#clip0_28_2678)">
<path d="M70.4021 52.3397C63.5803 47.9475 54.3222 47.1768 39.3913 51.317C23.474 55.0556 18.167 57.4521 11.1974 52.6412C8.51977 50.2779 7.55979 46.4727 8.27663 40.9916C9.93923 32.0564 14.4323 23.4577 22.413 13.9197C26.8678 8.95801 30.9999 4.70001 36.4563 2.99016C40.6382 1.91753 40.2472 5.20231 39.7412 5.67209C39.2073 5.67209 38.3103 5.75615 37.6171 6.20829C37.0545 6.6444 35.5101 8.05258 35.4272 9.94681C35.3075 12.8466 38.3101 12.243 39.6051 10.6509C41.0009 8.85677 43.0639 5.42105 41.4412 2.21896C40.761 1.07921 39.5858 0.291514 38.1267 0.0232989C33.1304 -0.262095 28.4772 2.1184 24.1829 4.75017C14.7912 11.2709 7.27838 20.3064 3.02734 30.1967C0.576398 36.1641 -1.6401 44.7122 1.68236 51.6695C4.25246 56.497 9.58838 59.0612 15.9544 58.525C20.4193 58.0561 25.8182 56.6138 29.4493 55.7429C33.0805 54.8707 51.668 48.4846 57.7753 59.5992C57.7753 59.5992 59.8061 55.6589 64.8815 55.5748C69.0541 55.19 75.0737 56.7821 79.4574 60C77.9969 57.8048 73.8563 54.5695 70.4021 52.3397Z" fill="#E61D2A"/>
<path d="M41.2867 15.0429C37.8102 12.7632 30.8229 17.1215 25.2265 24.5974C20.1087 31.3032 17.8989 39.0971 20.3037 42.7011C23.8813 46.942 30.5225 40.7735 33.3468 37.4717L33.7111 37.0858C35.6318 35.0239 37.1156 32.5429 38.5518 30.1624C38.5518 30.1624 39.8718 27.9832 39.9348 27.8824C40.7507 27.7322 41.7333 27.4974 42.8407 27.1788C42.8249 27.2287 38.6041 34.3196 39.0347 37.8391C39.1687 38.9129 39.0663 42.8354 42.898 44.0253C48.0047 44.8808 52.0825 40.9242 55.68 37.4039C55.68 37.4039 56.293 36.8178 56.6397 36.4832C56.5519 36.8343 56.4376 37.3027 56.4376 37.3027C54.9425 42.4994 56.9578 43.5896 58.2184 43.9921C62.0283 45.0991 66.5798 39.5669 66.5945 39.5669C66.4765 41.3095 66.1313 42.7511 67.9693 43.9078C69.704 44.5285 71.4597 43.5823 72.7941 42.6938C77.6009 39.3078 81.4734 34.0083 84.6013 29.4273H82.6061C82.5825 29.4273 77.6829 36.5251 74.5014 38.0677C74.4964 38.0677 73.9175 38.3648 73.5838 38.1298C73.1709 37.7775 73.3338 37.0455 73.5889 36.5269C73.6049 36.493 85.8729 15.2264 85.8729 15.2264H80.0805C80.0805 15.2264 79.4478 16.2495 79.3962 16.3166C79.3572 16.2832 79.2644 16.1073 79.2 16.023C75.6113 11.0613 67.4843 18.6932 61.3658 27.5437C59.0102 30.9468 56.0111 34.7786 52.9013 37.5444C52.9013 37.5444 48.2944 41.7653 46.3258 38.7327C45.6063 37.4585 45.8276 35.5956 46.2335 34.3723C48.5254 27.8515 52.4746 21.9336 56.9686 18.3627C58.2372 17.3744 59.6161 17.0885 60.3004 17.5077C60.9524 17.8938 61.0576 18.8485 60.6451 19.5025C59.5985 19.469 58.76 19.7869 58.0782 20.491C56.7353 21.8992 56.2687 23.2572 56.6956 24.5314C58.7698 27.4816 62.9065 21.6479 62.7064 18.0943C62.6349 16.8201 61.9548 15.6134 60.9398 15.0262C59.4271 14.1214 57.1194 14.3557 55.6259 15.077C53.6266 15.831 50.4618 18.4626 48.6145 20.508C46.2889 23.0731 42.3005 25.9224 41.0532 25.6034C41.4618 24.5133 44.8308 17.624 41.2867 15.0429ZM69.2132 25.2346C70.34 23.6759 73.6196 19.5018 74.4192 18.7979C77.1082 16.4334 78.183 17.4738 78.276 18.2109C75.7664 22.7032 72.8044 27.8497 70.0196 32.4764C70.0253 32.4599 69.1481 33.8006 69.1481 33.8006C67.9182 35.6776 66.6797 37.2869 64.6596 38.4099C64.3716 38.4942 63.8967 38.5279 63.5807 38.2924C63.2003 38.0409 63.0502 37.6218 63.093 37.1857C63.214 35.7445 64.6823 31.3367 69.2132 25.2346ZM37.7016 27.9333C37.7016 27.9333 37.6512 28.0847 37.6262 28.1341C37.6198 28.1341 35.1008 32.2405 35.1008 32.2405C33.5805 34.2692 31.6823 36.8178 29.3095 38.0409C28.6062 38.2757 27.6341 38.4269 27.1386 37.8071C26.0884 36.5496 26.6297 34.8063 27.0694 33.3984L27.225 32.8954C28.4859 29.4761 30.4865 26.4582 32.4338 23.6588C32.458 23.6423 32.5126 23.6256 32.5323 23.6256C32.5369 23.6423 32.5447 23.6423 32.5481 23.6759C33.77 26.0223 36.0612 27.1114 37.7747 27.6151C37.785 27.6151 37.796 27.6318 37.796 27.6655C37.7963 27.7154 37.7683 27.783 37.7016 27.9333ZM40.0881 23.0893C40.0771 23.1228 38.9661 25.6705 38.9661 25.6705C38.8055 25.8045 38.5516 25.7376 38.2605 25.6705L37.7619 25.5862C36.196 25.1004 35.0149 24.061 34.6507 22.8207C34.1484 20.4067 36.2116 18.5125 37.1207 17.8256C37.9929 17.2216 39.3489 16.9032 40.1363 17.5237C40.6219 18.0938 40.8059 18.8311 40.8059 19.6362C40.8061 20.7256 40.4697 21.9491 40.0881 23.0893Z" fill="#E61D2A"/>
<path d="M113.316 30.8665C112.758 29.6598 111.432 28.8886 110.019 28.9722C105.43 29.3916 100.942 33.1631 98.5852 38.5771C97.3486 41.3601 96.6737 43.6563 96.2312 47.3105C97.658 45.6682 100.568 42.9696 103.871 41.4943C103.871 41.4943 104.321 37.991 106.612 34.873C107.479 33.5818 109.215 31.5034 111.163 32.0564C112.866 32.6267 112.268 37.3371 110.005 41.8956C108.33 45.2486 105.768 48.6021 103.176 50.9148C100.884 52.8594 97.4932 55.206 94.5264 53.3959C92.6578 52.29 91.7047 49.9762 91.9061 46.9924C92.799 38.5274 96.6542 31.3193 102.171 23.1056C107.86 15.4785 114.131 7.65036 122.579 3.47573C124.302 2.6042 125.898 2.40309 127.277 2.93952C127.277 2.93952 119.347 7.29785 115.567 15.361C114.605 17.4064 113.268 20.1715 114.615 22.6191C115.318 23.8929 116.568 23.9936 117.574 23.9265C122.208 22.8534 125.201 18.5288 127.647 14.5731C129.065 11.5726 130.326 8.58877 130.326 5.26963C130.326 4.86742 130.305 4.33122 130.271 3.92855C132.484 2.7556 137.024 4.83375 137.024 4.83375C140.571 6.00762 148.124 11.7911 150.672 12.8969C151.915 11.4555 153.957 9.2766 155.107 8.18679L153.442 7.16409C150.777 5.53808 147.96 3.99566 145.187 2.47043C138.89 -0.96552 133.764 0.241107 131.155 1.17998C130.13 1.54851 129.193 1.86712 129.193 1.86712C127.257 -0.244934 124.082 -0.0442876 121.742 0.526042C113.329 2.93975 105.517 8.82332 97.1421 19.0322C90.9849 27.0283 87.1656 33.9348 85.1299 40.757C83.5608 45.3496 83.0839 52.1052 86.9137 56.1117C90.17 59.5135 94.4877 58.7767 97.5367 57.5533C104.143 54.3013 110.08 47.294 113.039 39.2311C113.753 36.8343 114.545 33.4483 113.316 30.8665ZM128.507 5.60519C127.632 15.6295 119.836 21.5137 117.907 21.9824C116.738 22.2167 114.743 21.6974 116.524 17.4905C119.146 11.8241 123.623 7.0136 128.427 4.54927C128.544 4.96843 128.541 5.23596 128.507 5.60519Z" fill="#E61D2A"/>
<path d="M174.752 6.87862C170.559 9.25935 166.212 10.8011 160.949 10.2649C159.491 11.9081 158.071 13.601 156.762 15.344C164.148 17.2215 171.978 13.0476 176.345 9.07519C180.964 5.06868 183.333 0.0234375 183.333 0.0234375C183.333 0.0234375 179.871 3.9791 174.752 6.87862Z" fill="#E61D2A"/>
<path d="M92.3963 20.2656L95.5004 15.2266H89.9995L86.8965 20.2656H92.3963Z" fill="#E61D2A"/>
<path d="M160.927 52.8062C160.336 53.2084 159.505 52.8992 159.816 51.9775C160.59 49.6306 163.666 44.8481 163.666 44.8481L172.236 29.6563H166.366C166.087 30.1144 165.49 31.1664 165.49 31.1664C165.219 30.7142 164.407 29.7087 164.072 29.4916C162.638 28.5857 160.534 29.014 159.082 29.8352C152.771 33.5235 148.167 40.8107 144.535 46.4936C144.535 46.4936 140.713 52.8108 138.59 53.2805C136.934 53.4148 137.105 51.1843 137.176 50.6646C137.817 46.9091 139.305 43.3389 140.803 40.1036C143.851 37.9916 147.33 35.2258 150.492 32.1918C157.352 25.6369 163.136 18.211 163.982 16.5515C163.982 16.5515 163.067 16.7361 161.986 16.7693C156.708 24.1282 145.907 34.8234 142.632 36.4155C144.083 32.9282 153.455 16.2831 161.431 8.32089L162.686 7.11358C164.626 5.21935 166.637 3.27496 168.204 2.95635C168.37 2.93963 168.583 2.95635 168.767 3.34253C168.837 4.81737 168.288 5.90718 167.657 7.14748L166.774 8.9581C166.774 8.9581 168.025 8.72333 168.847 8.45443C169.8 6.66167 170.856 4.64948 170.467 2.25295C170.337 1.48174 169.778 0.895149 169.049 0.760927C166.669 0.308327 164.076 2.06788 161.99 3.49324L161.906 3.54318C151.18 11.9415 142.124 24.0444 134.206 40.5727C133.632 41.0079 131.415 41.5281 131.038 41.2763C131.82 39.6675 132.804 37.5046 133.297 35.1578C133.382 34.4871 133.461 33.8002 133.461 33.1298C133.461 31.687 133.115 30.3297 131.822 29.3913C130.306 28.6368 128.432 28.9891 127.168 29.5587C121.508 31.9055 117.278 37.7059 114.226 42.4827C112.584 45.5176 110.947 48.7681 110.494 52.4901C110.174 55.4063 110.824 57.2838 112.483 58.2229C114.189 59.094 116.337 58.1886 117.18 57.7532C122.914 54.7359 126.921 48.6849 130.079 43.1527C130.204 43.1362 131.929 43.0863 133.233 42.7505C133.25 42.7505 133.257 42.7505 133.286 42.7681C133.212 43.0185 132.538 45.0307 132.538 45.0307C130.536 50.8973 129.611 54.8873 131.501 57.2504C134.203 60.5865 138.675 57.1336 142.314 52.5732C141.533 58.0379 144.367 58.8931 146.526 58.4744C149.008 57.8042 151.773 55.1551 153.056 53.7977C152.644 55.3898 152.756 58.2399 155.013 58.5246C156.56 58.8104 157.718 57.9694 159.057 57.2483C163.863 54.6331 169.615 45.9185 171.108 43.3989H169.15C167.027 46.6058 164.326 50.8105 160.927 52.8062ZM117.794 52.2226C117.489 51.77 117.388 51.275 117.378 50.7399C117.32 47.4531 120.858 41.5668 123.355 38.3601C123.36 38.3601 123.36 38.3601 123.36 38.3601C124.407 40.6506 126.777 42.1229 128.208 42.7434C126.431 46.6998 120.337 55.1727 117.794 52.2226ZM129.211 40.9747C129.041 41.0927 126.053 40.0864 125.475 37.3207C124.985 34.9395 126.626 33.0789 128.213 32.141C128.894 31.6043 129.921 31.4204 130.673 31.6875C131.372 32.1575 131.561 32.9963 131.561 33.9001C131.561 34.4544 131.488 35.0238 131.423 35.5433C131.423 35.5433 131.411 35.6443 131.409 35.661C130.911 37.5211 130.149 39.3484 129.211 40.9747ZM153.181 51.1666C153.178 51.1666 152.614 51.6694 152.614 51.6694C151.807 52.3898 150.978 53.161 149.976 52.7753C149.7 52.6747 149.505 52.3064 149.458 52.0205C149.413 49.9586 150.342 48.0482 151.243 46.1878L151.474 45.7013C154.065 41.3767 157.077 36.2808 161.501 32.7443C162.247 32.2067 163.056 31.755 163.909 32.1073C164.106 32.2912 164.335 32.6101 164.335 32.9282C164.335 33.0292 164.245 33.2972 164.193 33.3806C162.958 35.3763 161.781 37.4714 160.637 39.4827C158.401 43.4557 156.081 47.5621 153.181 51.1666Z" fill="#E61D2A"/>
</g>
<defs>
<clipPath id="clip0_28_2678">
<rect width="183.333" height="60" fill="white"/>
</clipPath>
</defs>
</svg>
