
<svg width="226" height="35" viewBox="0 0 226 35" fill="none" xmlns="http://www.w3.org/2000/svg">
<path d="M17.3291 4.93465C15.6359 7.63614 14.1587 10.0675 14.0326 10.3196C13.8165 10.8059 13.8705 10.932 15.5818 13.8676C15.9421 14.5159 16.4104 15.3264 16.6086 15.6686C18.7162 19.3606 20.0852 21.7559 20.2654 22.0261C20.4635 22.3142 20.5716 22.1882 21.2922 20.9455C21.7425 20.171 23.2917 17.5236 24.7508 15.0562C26.2459 12.5348 27.3808 10.4637 27.3267 10.2836C27.2907 10.1215 25.8676 7.92429 24.1924 5.40291C22.5171 2.88152 21.04 0.630278 20.9139 0.396149C20.8058 0.180029 20.6437 -6.86646e-05 20.5536 -6.86646e-05C20.4635 -6.86646e-05 19.0224 2.21515 17.3291 4.93465Z" fill="#ED1B24"/>
<path d="M105.362 10.3196C103.651 10.8419 102.66 11.4182 101.453 12.6429C99.3815 14.732 98.8051 17.5776 99.9039 20.3151C100.264 21.2696 101.921 22.8005 103.128 23.3228C103.633 23.5389 104.966 23.9351 106.101 24.2053C109.487 24.9977 110.298 25.538 110.298 27.0148C110.298 28.9058 108.226 29.7883 105.506 29.0859C104.263 28.7618 102.588 27.9333 101.777 27.2489C101.453 26.9788 101.147 26.8347 101.111 26.9248C101.075 27.0328 100.444 28.1134 99.6878 29.3201L98.3367 31.5353L98.751 31.8775C99.5076 32.5078 102.372 33.8406 103.849 34.2368C104.966 34.5429 105.848 34.633 107.722 34.651C110.478 34.669 111.505 34.4709 113.414 33.5704C116.495 32.1116 118.188 29.266 117.936 25.9342C117.774 23.8631 117.395 22.9626 116.098 21.6839C114.729 20.3511 113.198 19.6487 110.37 19.1084C108.262 18.6942 107.542 18.4061 107.109 17.7937C106.515 16.9473 106.983 15.6325 107.992 15.2003C109.289 14.66 111.505 15.0202 113.18 16.0468C113.648 16.3349 114.099 16.569 114.171 16.569C114.333 16.569 116.657 12.1206 116.549 12.0125C116.495 11.9585 115.936 11.6703 115.306 11.3462C112.441 9.92339 108.226 9.49115 105.362 10.3196Z" fill="black"/>
<path d="M175.453 10.3738C172.013 11.2923 169.779 13.4715 169.131 16.5332C168.68 18.7304 169.455 21.1257 171.022 22.3684C172.337 23.413 172.949 23.6651 175.543 24.2955C176.84 24.6197 178.209 25.0339 178.606 25.214C180.263 26.0064 180.443 28.0776 178.93 29.0141C177.309 30.0226 173.976 29.3383 171.49 27.4832L170.878 27.015L170.301 27.9515C169.977 28.4738 169.383 29.4643 168.968 30.1307C168.554 30.8151 168.194 31.4994 168.176 31.6615C168.158 32.0578 170.842 33.5706 172.625 34.1289C175.489 35.0474 179.434 35.1014 181.848 34.273C185.883 32.9042 188.153 29.3022 187.523 25.322C187 22.0442 184.82 20.2432 180.263 19.3247C177.957 18.8565 177.597 18.7304 176.948 18.1361C176.426 17.6678 176.39 16.6233 176.894 15.9929C177.417 15.3085 178.173 15.0744 179.578 15.1644C180.623 15.2185 181.092 15.3626 182.335 15.9929C183.145 16.4071 183.866 16.6953 183.938 16.6052C184.136 16.3891 186.262 12.4269 186.262 12.2649C186.262 11.9947 183.469 10.8241 181.938 10.4459C180.083 10.0136 176.948 9.97759 175.453 10.3738Z" fill="black"/>
<path d="M221.154 10.8779C220.271 11.2021 219.857 11.5803 219.407 12.4988C218.866 13.6334 218.92 14.8581 219.569 15.8847C221.028 18.19 224.415 17.9198 225.549 15.3984C226.18 14.0297 225.892 12.6609 224.775 11.5623C223.802 10.6438 222.523 10.3917 221.154 10.8779ZM223.676 11.5443C225.099 12.2287 225.603 14.1017 224.757 15.5605C223.514 17.7577 220.235 17.1634 219.785 14.66C219.533 13.2733 220.055 12.1206 221.208 11.5083C222.019 11.058 222.721 11.076 223.676 11.5443Z" fill="black"/>
<path d="M221.208 14.0477C221.208 15.6866 221.262 16.0288 221.478 16.0288C221.676 16.0288 221.749 15.8127 221.749 15.1283C221.749 13.9036 222.199 13.9036 222.883 15.1283C223.226 15.7406 223.514 16.0288 223.748 16.0288C224.072 16.0288 224.054 15.9568 223.55 15.2364C222.937 14.3359 222.901 14.2278 223.262 14.2278C223.622 14.2278 223.964 13.7415 223.964 13.2013C223.964 12.4628 223.334 12.0666 222.181 12.0666H221.208V14.0477ZM223.352 13.0392C223.424 13.4894 222.919 13.8676 222.253 13.8676C221.803 13.8676 221.749 13.8136 221.749 13.2193V12.5889L222.505 12.6429C223.1 12.679 223.298 12.769 223.352 13.0392Z" fill="black"/>
<path d="M43.413 22.6926V34.5791H46.115H48.8171L48.8351 26.6007C48.8351 21.9001 48.9071 18.7844 48.9972 19.0005C49.0873 19.1986 49.5556 20.6574 50.06 22.2423C50.5644 23.8272 51.6452 27.2311 52.4919 29.8065L54.005 34.4891H56.2207H58.4364L58.9408 32.7781C59.7154 30.2387 61.7509 23.2509 62.4354 20.9276C62.7417 19.811 63.0659 18.8384 63.138 18.7664C63.21 18.6944 63.228 22.2243 63.192 26.6007L63.0839 34.5791H66.0021H68.9023V22.7286V10.8961H64.507H60.1297L59.1389 14.1378C58.5985 15.9208 57.8059 18.5863 57.3556 20.0811C56.9052 21.5579 56.5089 22.9087 56.4369 23.0528C56.3468 23.3049 55.32 20.3152 53.2304 13.6516L52.3297 10.806H47.8804H43.413V22.6926Z" fill="black"/>
<path d="M70.9739 22.6926V34.5791H74.2704H77.5489V22.7286V10.8961L74.2704 10.842L70.9739 10.806V22.6926Z" fill="black"/>
<path d="M79.0801 13.1473V15.4886H82.4126H85.7451V25.0338V34.5791H88.9516H92.176L92.2841 30.761C92.3562 28.6718 92.4102 24.3855 92.4102 21.2157V15.4886H95.5626H98.715V13.1473V10.806H88.8975H79.0801V13.1473Z" fill="black"/>
<path d="M119.07 18.9644C119.07 26.3845 119.107 27.249 119.413 28.4197C120.53 32.688 125.015 35.5156 129.735 34.9212C132.13 34.6151 133.806 33.8406 135.535 32.2378C136.85 31.0131 137.426 30.1126 137.949 28.5457C138.291 27.5372 138.327 26.8888 138.381 19.1806L138.435 10.896L135.607 10.842L132.779 10.7879L132.725 18.9464C132.671 26.9428 132.671 27.1229 132.275 27.8433C131.464 29.3382 129.861 30.2567 128.456 29.9865C127.645 29.8244 126.402 28.6178 126.078 27.6452C125.898 27.1049 125.826 24.9437 125.772 18.8564L125.718 10.8059H122.403H119.07V18.9644Z" fill="black"/>
<path d="M139.606 22.8907V34.9753L146.595 34.9033C153.116 34.8313 153.657 34.7952 154.882 34.435C158.088 33.4625 159.241 32.4179 159.889 29.8785C160.394 27.8974 159.98 25.7723 158.791 24.2054C158.538 23.8812 157.8 23.3409 157.097 22.9987L155.854 22.3684L156.719 21.8101C157.782 21.1257 158.647 20.1532 159.079 19.1806C159.493 18.2621 159.835 16.137 159.691 15.4526C159.385 14.1199 157.007 11.8686 155.134 11.1662C154.233 10.824 153.747 10.806 146.902 10.806H139.606V22.8907ZM151.693 15.7227C152.99 16.5872 153.062 18.6944 151.801 19.4508C151.315 19.757 150.883 19.811 148.937 19.811H146.631V17.5597V15.3085H148.865C150.883 15.3085 151.135 15.3445 151.693 15.7227ZM152.018 25.6822C152.414 25.8443 152.864 26.1505 153.008 26.3846C153.639 27.3391 153.188 28.96 152.09 29.6624C151.675 29.9326 151.207 29.9866 149.099 29.9866H146.613V27.7714C146.613 26.5647 146.613 25.5381 146.631 25.4841C146.631 25.4301 147.676 25.3941 148.973 25.3941C150.684 25.3941 151.495 25.4661 152.018 25.6822Z" fill="black"/>
<path d="M160.682 22.7647V34.7593H164.015H167.347V22.8727V10.9862H165.51C164.483 10.9862 162.988 10.9322 162.177 10.8601L160.682 10.7521V22.7647Z" fill="black"/>
<path d="M188.495 10.9682C188.459 11.0042 188.423 16.3892 188.423 22.9088V34.7593H191.666H194.908V29.8966V25.0339H198.241H201.573V29.8966V34.7593H204.816H208.058V22.8727V10.9862H204.816H201.573V15.1285V19.2707H198.241H194.908V15.1285V11.0042L191.738 10.9502C189.99 10.9141 188.531 10.9322 188.495 10.9682Z" fill="black"/>
<path d="M210.256 22.8187L210.31 34.6692H213.462H216.615L216.669 22.8187L216.705 10.9861H213.462H210.22L210.256 22.8187Z" fill="black"/>
<path d="M3.44061 28.5457C1.54918 31.7515 0 34.435 0 34.489C0 34.5431 2.97226 34.5611 6.61102 34.5431L13.222 34.489L14.7712 31.8776C15.6179 30.4368 17.167 27.8434 18.2118 26.1144C19.2386 24.3855 20.1213 22.9086 20.1393 22.8366C20.1753 22.7646 17.2031 22.6925 13.5463 22.6925H6.88123L3.44061 28.5457Z" fill="#ED1B24"/>
<path d="M20.7878 22.9626C20.8418 23.1067 21.3462 24.0252 21.9406 24.9797C22.5171 25.9523 23.9582 28.4557 25.1291 30.5628L27.2907 34.3809L34.3881 34.3989C40.4767 34.3989 41.4495 34.3629 41.3774 34.1468C41.2693 33.8946 40.2606 32.2197 38.4232 29.2661C37.9368 28.4737 36.82 26.6727 35.9373 25.2499L34.3521 22.6925H27.5069C21.5443 22.6925 20.6977 22.7285 20.7878 22.9626Z" fill="#ED1B24"/>
</svg>
