
<svg width="270" height="48" viewBox="0 0 270 48" fill="none" xmlns="http://www.w3.org/2000/svg">
<g clip-path="url(#clip0_28_2628)">
<path d="M205.368 2.6837V8.01786H210.524C212.776 8.01786 214.256 9.45244 215.098 10.3797C215.773 11.1433 230.623 28.1509 230.98 28.5981C231.336 29.0454 231.336 29.0506 231.336 29.3343V37.7622C231.335 38.1485 231.297 38.5338 231.222 38.9127C231.117 39.1574 230.96 39.3759 230.762 39.5531C230.564 39.7303 230.331 39.8618 230.078 39.9387C229.591 40.0005 229.1 40.0315 228.609 40.0314L223.447 40.025V45.3592H252.402V40.025H246.953C246.465 40.0274 245.978 39.9961 245.494 39.9312C245.242 39.8552 245.009 39.7239 244.812 39.5468C244.615 39.3697 244.459 39.1511 244.355 38.9063C244.279 38.5276 244.24 38.1422 244.237 37.7558V29.3332C244.205 29.0563 244.274 28.7772 244.431 28.548L260.496 10.0356C261.97 8.3774 262.737 8.01678 264.671 8.01678H270V2.68262H246.138V8.00611H249.739C249.932 7.9944 250.125 8.03891 250.293 8.13432C250.462 8.22974 250.6 8.37204 250.691 8.54437C250.782 8.7167 250.822 8.91178 250.807 9.10644C250.791 9.3011 250.72 9.48715 250.603 9.64249C250.528 9.75155 240.613 21.5279 240.489 21.6425C240.365 21.7571 240.284 21.7295 240.192 21.6042C240.101 21.4786 230.305 9.64251 230.305 9.64251C229.614 8.78614 230.154 8.00614 230.964 8.00614H234.474V2.68264L205.368 2.6837Z" fill="#878787"/>
<path d="M134.352 2.68359V8.01775H138.974C142.311 8.01775 142.539 9.89491 142.539 11.5313V36.4964C142.539 37.991 142.625 40.0419 140.497 40.0419H134.794V45.3707H159.144V40.0419H153.204C150.833 40.0419 150.725 38.9459 150.698 36.6168V15.2291L184.14 45.3707H192.645L192.197 11.3288C192.24 8.84157 192.391 8.01242 194.94 8.01242H200.269V2.68359H175.429V8.01242H180.884C183.39 8.01242 183.81 8.98885 183.843 11.3288L184.14 29.1435L155.11 2.68359H134.352Z" fill="#878787"/>
<path d="M24.705 0C19.4724 0 13.527 0.992719 8.50501 3.27272C3.8178 5.38908 3.40363e-05 8.78697 3.40363e-05 14.4215C-0.00708843 17.3723 1.10387 20.214 3.10502 22.3637C4.46043 23.6291 6.64777 25.7782 12.361 27.0437C14.9152 27.5891 20.3746 28.4673 25.8124 29.0455C31.2502 29.6236 36.5207 30.1366 38.6807 30.7202C40.3979 31.162 43.2865 31.7621 43.2865 35.0348C43.2865 38.3075 40.2466 39.2891 39.7174 39.5018C39.1882 39.7145 35.5374 41.4055 28.9818 41.4055C24.6383 41.2837 20.3343 40.5361 16.2 39.1854C13.7538 38.3018 11.1894 37.1399 8.79716 34.1889C7.83149 32.7994 7.29559 31.1518 7.25732 29.4545H1.31731V46.255H7.91647V43.9805C7.91539 43.8117 7.95892 43.6457 8.0425 43.4996C8.12608 43.3534 8.2467 43.2325 8.39197 43.1491C8.53725 43.0658 8.70192 43.023 8.86899 43.0254C9.03605 43.0277 9.19949 43.0749 9.34245 43.1623C12.4512 44.5286 15.6848 45.5844 18.9971 46.3146C22.4639 47.0455 24.7053 47.5749 29.0145 47.5749C33.5615 47.6623 38.0931 47.016 42.4385 45.6605C45.324 44.8614 48.0313 43.5115 50.414 41.6836C51.7543 40.6438 52.8375 39.3042 53.5786 37.7701C54.3198 36.2361 54.6987 34.5493 54.6856 32.8423C54.7085 29.5992 53.4696 26.4766 51.2357 24.147C49.9933 22.9295 48.554 21.9354 46.98 21.2077C45.288 20.4354 43.5313 19.8165 41.7308 19.3583C38.3072 18.5128 30.6183 17.4547 26.9409 17.0838C23.0853 16.6802 16.3945 16.1179 13.7215 15.2834C12.9115 15.027 11.2588 14.2368 11.2588 12.3004C11.2588 10.9204 12.0149 9.75295 13.5053 8.80932C15.8759 7.3093 20.6604 6.37605 25.65 6.37605C30.4797 6.31709 35.2698 7.26211 39.7227 9.15234C40.9189 9.67901 42.0438 10.3574 43.0702 11.1712C44.7436 12.6149 45.9024 14.5728 46.3693 16.745H51.6997V2.12216H45.7597V3.81818C45.7597 4.36363 45.2197 5.08388 44.1397 4.48935C41.4613 3.08208 33.9336 0.0381791 24.705 0Z" fill="#878787"/>
<path d="M96.1907 0C86.8325 0 76.896 3.27233 71.28 8.42687C69.1391 10.3959 67.43 12.7958 66.2627 15.4722C65.0955 18.1487 64.4959 21.0423 64.5026 23.967C64.4692 26.9037 65.0564 29.8138 66.2252 32.503C67.3939 35.1922 69.1172 37.5986 71.28 39.5614C77.328 45.0542 86.4005 48 96.1907 48C105.997 48 115.263 45.0869 121.166 39.5614C123.264 37.5525 124.939 35.1351 126.087 32.455C127.236 29.7748 127.836 26.8875 127.85 23.967C127.879 21.0494 127.299 18.1585 126.147 15.4829C124.995 12.8072 123.298 10.4069 121.166 8.43857C114.831 2.63493 106.542 0 96.1907 0ZM96.1907 6.2397C101.31 6.2397 106.24 8.10023 109.561 11.4002C112.774 14.5966 114.453 19.113 114.453 23.9457C114.453 29.0075 112.925 33.1093 109.561 36.4911C106.197 39.873 101.38 41.6836 96.1907 41.6836C91.0391 41.6836 86.1193 39.8348 82.7983 36.4911C81.2099 34.8265 79.9629 32.8612 79.1289 30.7083C78.2948 28.5553 77.8902 26.2571 77.9383 23.9457C77.9383 19.1348 79.5961 14.602 82.7983 11.4002C86.1193 8.08387 91.0715 6.2397 96.1907 6.2397Z" fill="#878787"/>
</g>
<defs>
<clipPath id="clip0_28_2628">
<rect width="270" height="48" fill="white"/>
</clipPath>
</defs>
</svg>
