
<svg width="184" height="50" viewBox="0 0 184 50" fill="none" xmlns="http://www.w3.org/2000/svg">
<path fill-rule="evenodd" clip-rule="evenodd" d="M112.411 10.3037H88.198V18.1999H96.2907V35.0937H104.185V18.1999H112.411V10.3037ZM136.071 35.0289L128.44 10.3037H118.831L111.201 35.0289H119.096L123.635 17.4487L128.176 35.0289H136.071ZM160.243 10.3037H136.031V18.1999H144.124V35.0937H152.017V18.1999H160.243V10.3037ZM183.637 35.0289L176.004 10.3037H166.398L158.766 35.0289H166.664L171.203 17.4487L175.741 35.0289H183.637ZM29.3279 36.8167C31.0478 29.5109 32.3236 22.3795 32.3236 22.3795C32.3236 22.3795 32.9652 20.0274 31.6821 18.4235C30.3989 16.8196 26.443 17.3546 26.443 17.3546C26.443 17.3546 20.298 17.4278 14.0349 18.1822C8.45733 18.8551 2.76582 19.9616 0.667684 20.3869C0.229042 21.8859 0.0042615 23.4393 0 25.0011C0 36.009 11.0006 45.3482 26.2727 48.6846C27.0741 45.7714 28.2789 41.2669 29.3279 36.8167Z" fill="#2D509F"/>
<path fill-rule="evenodd" clip-rule="evenodd" d="M40.6796 32.2181C40.6064 23.3648 40.854 15.108 40.854 15.108C40.854 15.108 40.5698 13.8646 41.3629 13.2565C42.1748 12.6348 44.0619 12.6494 44.0619 12.6494C44.0619 12.6494 51.3823 12.8553 59.5858 13.9075C65.5751 14.6775 72.0513 15.9126 74.9759 16.4967C69.5989 6.87536 55.3592 0 38.6357 0C21.8465 0 7.56599 6.93074 2.23706 16.6085C4.80122 16.0923 11.7717 14.7329 18.1904 13.9085C26.3938 12.8563 33.7122 12.6505 33.7122 12.6505C33.7122 12.6505 35.6014 12.6358 36.4122 13.2575C37.2053 13.8657 36.9211 15.1091 36.9211 15.1091C36.9211 15.1091 37.1698 23.3658 37.0956 32.2191C37.0371 39.0046 36.8281 46.1214 36.7006 49.9676C37.3411 49.9885 37.9848 50 38.6347 50C39.4539 50 40.2658 49.9781 41.0724 49.9446C40.946 46.0911 40.7381 38.99 40.6796 32.2181Z" fill="#2D509F"/>
<path fill-rule="evenodd" clip-rule="evenodd" d="M63.7423 18.181C57.4793 17.4266 51.3332 17.3534 51.3332 17.3534C51.3332 17.3534 47.3783 16.8195 46.0931 18.4224C44.811 20.0263 45.4536 22.3783 45.4536 22.3783C45.4536 22.3783 46.7284 29.5097 48.4483 36.8155C49.4838 41.2135 50.6729 45.6626 51.4743 48.5789C66.4998 45.1548 77.2715 35.8908 77.2715 24.9999C77.2715 23.3845 77.026 21.8088 76.5746 20.2791C74.1525 19.7953 68.8978 18.8027 63.7423 18.181Z" fill="#2D509F"/>
</svg>
