
<svg width="224" height="50" viewBox="0 0 224 50" fill="none" xmlns="http://www.w3.org/2000/svg">
<g clip-path="url(#clip0_28_2643)">
<path d="M69.9314 7.80833C69.1084 4.73331 66.6916 2.3168 63.6166 1.49366C58.0489 0.000244588 35.7122 0.000244141 35.7122 0.000244141C35.7122 0.000244141 13.3758 0.000244588 7.80781 1.49366C4.73282 2.3168 2.31631 4.73331 1.49317 7.80833C-0.000243694 13.3763 -0.000244141 25.0002 -0.000244141 25.0002C-0.000244141 25.0002 -0.000243694 36.6242 1.49317 42.1922C2.31631 45.2672 4.73282 47.6836 7.80781 48.5066C13.3758 50.0001 35.7122 50.0001 35.7122 50.0001C35.7122 50.0001 58.0489 50.0001 63.6166 48.5066C66.6916 47.6836 69.1084 45.2672 69.9314 42.1922C71.4249 36.6242 71.4249 25.0002 71.4249 25.0002C71.4249 25.0002 71.4188 13.3763 69.9314 7.80833Z" fill="#FF0000"/>
<path d="M28.5631 35.7135L47.1191 25.001L28.5631 14.2883V35.7135Z" fill="white"/>
<path d="M86.5057 32.5089L78.486 3.54614H85.4827L88.2932 16.6752C89.0104 19.909 89.5337 22.6665 89.8747 24.9478H90.0804C90.3157 23.3133 90.8449 20.5734 91.6622 16.7223L94.5724 3.54614H101.569L93.4494 32.5089V46.4024H86.4999V32.5089H86.5057Z" fill="#282828"/>
<path d="M103.674 45.4842C102.263 44.5317 101.257 43.0499 100.658 41.0392C100.064 39.0285 99.7642 36.3592 99.7642 33.0195V28.4745C99.7642 25.1055 100.105 22.3951 100.787 20.3549C101.469 18.3147 102.533 16.8213 103.98 15.8864C105.426 14.9516 107.325 14.4812 109.677 14.4812C111.994 14.4812 113.846 14.9574 115.245 15.9099C116.638 16.8624 117.661 18.3558 118.308 20.3784C118.955 22.4069 119.278 25.1055 119.278 28.4745V33.0195C119.278 36.3592 118.961 39.0402 118.332 41.0627C117.703 43.0912 116.68 44.5729 115.268 45.5077C113.857 46.4427 111.941 46.9129 109.524 46.9129C107.031 46.9187 105.085 46.4367 103.674 45.4842ZM111.588 40.5807C111.976 39.5577 112.176 37.8937 112.176 35.5772V25.823C112.176 23.5769 111.982 21.9306 111.588 20.8958C111.194 19.8551 110.506 19.3377 109.518 19.3377C108.566 19.3377 107.89 19.8551 107.502 20.8958C107.108 21.9365 106.914 23.5769 106.914 25.823V35.5772C106.914 37.8937 107.102 39.5634 107.478 40.5807C107.854 41.6037 108.53 42.1152 109.518 42.1152C110.506 42.1152 111.194 41.6037 111.588 40.5807Z" fill="#282828"/>
<path d="M142.038 46.4084H136.523L135.912 42.5749H135.759C134.259 45.4677 132.013 46.9139 129.015 46.9139C126.939 46.9139 125.405 46.2319 124.417 44.8739C123.429 43.5097 122.935 41.3814 122.935 38.4887V15.0938H129.985V38.0769C129.985 39.4764 130.138 40.4699 130.444 41.0639C130.749 41.6577 131.261 41.9574 131.978 41.9574C132.59 41.9574 133.178 41.7694 133.742 41.3932C134.307 41.0167 134.718 40.5404 134.994 39.9644V15.0879H142.038V46.4084Z" fill="#282828"/>
<path d="M161.188 9.21894H154.192V46.4072H147.295V9.21894H140.298V3.55103H161.188V9.21894Z" fill="#282828"/>
<path d="M178.192 46.4084H172.677L172.065 42.5749H171.912C170.413 45.4677 168.167 46.9139 165.168 46.9139C163.093 46.9139 161.558 46.2319 160.571 44.8739C159.583 43.5097 159.089 41.3814 159.089 38.4887V15.0938H166.139V38.0769C166.139 39.4764 166.291 40.4699 166.597 41.0639C166.903 41.6577 167.414 41.9574 168.132 41.9574C168.743 41.9574 169.331 41.7694 169.896 41.3932C170.46 41.0167 170.872 40.5404 171.148 39.9644V15.0879H178.192V46.4084Z" fill="#282828"/>
<path d="M201.522 20.0967C201.093 18.1212 200.405 16.6924 199.452 15.8046C198.5 14.9168 197.189 14.4758 195.519 14.4758C194.225 14.4758 193.014 14.8404 191.891 15.5753C190.768 16.3103 189.898 17.2686 189.286 18.4622H189.234V1.96411H182.443V46.4019H188.263L188.981 43.4387H189.134C189.68 44.4969 190.498 45.3259 191.585 45.9434C192.673 46.5549 193.884 46.8607 195.213 46.8607C197.594 46.8607 199.352 45.7612 200.475 43.5679C201.598 41.3689 202.163 37.9412 202.163 33.2729V28.3164C202.163 24.818 201.945 22.0723 201.522 20.0967ZM195.06 32.8729C195.06 35.1542 194.966 36.9417 194.778 38.2352C194.59 39.5287 194.278 40.4519 193.831 40.9927C193.39 41.5394 192.791 41.8099 192.044 41.8099C191.462 41.8099 190.927 41.6747 190.433 41.3984C189.939 41.1279 189.539 40.7164 189.234 40.1754V22.4015C189.469 21.549 189.88 20.8552 190.462 20.3084C191.039 19.7616 191.674 19.4911 192.35 19.4911C193.067 19.4911 193.62 19.7733 194.008 20.3319C194.402 20.8963 194.672 21.8371 194.825 23.1659C194.978 24.4946 195.054 26.3819 195.054 28.8337V32.8729H195.06Z" fill="#282828"/>
<path d="M212.164 34.678C212.164 36.6887 212.222 38.194 212.34 39.1995C212.458 40.2047 212.705 40.934 213.081 41.3985C213.457 41.857 214.033 42.0862 214.815 42.0862C215.868 42.0862 216.597 41.6747 216.985 40.8575C217.379 40.0402 217.591 38.6762 217.626 36.7712L223.705 37.1297C223.741 37.4002 223.758 37.7765 223.758 38.2527C223.758 41.1455 222.964 43.3092 221.383 44.7379C219.801 46.1667 217.561 46.8839 214.668 46.8839C211.194 46.8839 208.759 45.7962 207.366 43.6149C205.967 41.4337 205.273 38.0647 205.273 33.502V28.034C205.273 23.3363 205.996 19.9026 207.442 17.739C208.889 15.5753 211.364 14.4934 214.874 14.4934C217.291 14.4934 219.149 14.9344 220.442 15.8222C221.736 16.71 222.647 18.0858 223.176 19.9614C223.705 21.837 223.97 24.424 223.97 27.7282V33.0905H212.164V34.678ZM213.057 19.9203C212.699 20.3612 212.464 21.0844 212.34 22.0898C212.222 23.0952 212.164 24.618 212.164 26.6642V28.9102H217.32V26.6642C217.32 24.6533 217.25 23.1305 217.114 22.0898C216.979 21.0491 216.732 20.3201 216.373 19.8909C216.015 19.4675 215.462 19.25 214.715 19.25C213.963 19.2559 213.41 19.4793 213.057 19.9203Z" fill="#282828"/>
</g>
<defs>
<clipPath id="clip0_28_2643">
<rect width="223.97" height="50" fill="white"/>
</clipPath>
</defs>
</svg>
